<mxfile host="app.diagrams.net" modified="2023-04-11T07:13:15.051Z" agent="5.0 (Windows NT 10.0; Win64; x64) AppleWebKit/537.36 (KHTML, like Gecko) Chrome/111.0.0.0 Safari/537.36" etag="l-5w6IzAB58r1fIAD5kn" version="21.0.6" type="github">
  <diagram name="Page-1" id="PDgh5A9OTUAicHQzBRFY">
    <mxGraphModel dx="1114" dy="584" grid="1" gridSize="10" guides="1" tooltips="1" connect="1" arrows="1" fold="1" page="1" pageScale="1" pageWidth="827" pageHeight="1169" math="0" shadow="0">
      <root>
        <mxCell id="0" />
        <mxCell id="1" parent="0" />
        <mxCell id="7XObOdcH8YXmiFsAvzGK-42" value="END" style="ellipse;whiteSpace=wrap;html=1;aspect=fixed;fillColor=#f8cecc;strokeColor=#b85450;" vertex="1" parent="1">
          <mxGeometry x="55" y="1110" width="40" height="40" as="geometry" />
        </mxCell>
        <mxCell id="7XObOdcH8YXmiFsAvzGK-70" style="edgeStyle=orthogonalEdgeStyle;rounded=0;orthogonalLoop=1;jettySize=auto;html=1;exitX=0.5;exitY=1;exitDx=0;exitDy=0;entryX=0.5;entryY=0;entryDx=0;entryDy=0;fillColor=#fff2cc;gradientColor=#ffd966;strokeColor=#d6b656;" edge="1" parent="1" source="7XObOdcH8YXmiFsAvzGK-63" target="7XObOdcH8YXmiFsAvzGK-42">
          <mxGeometry relative="1" as="geometry" />
        </mxCell>
        <mxCell id="7XObOdcH8YXmiFsAvzGK-71" value="Data Breach" style="swimlane;childLayout=stackLayout;resizeParent=1;resizeParentMax=0;startSize=20;html=1;fillColor=#a20025;fontColor=#ffffff;strokeColor=#6F0000;" vertex="1" parent="1">
          <mxGeometry x="10" y="10" width="810" height="1150" as="geometry" />
        </mxCell>
        <mxCell id="7XObOdcH8YXmiFsAvzGK-72" value="ผู้แจ้ง" style="swimlane;startSize=20;html=1;fillColor=#1ba1e2;strokeColor=#006EAF;fontColor=#ffffff;" vertex="1" parent="7XObOdcH8YXmiFsAvzGK-71">
          <mxGeometry y="20" width="150" height="1130" as="geometry" />
        </mxCell>
        <mxCell id="7XObOdcH8YXmiFsAvzGK-1" value="START" style="ellipse;whiteSpace=wrap;html=1;aspect=fixed;fillColor=#d5e8d4;strokeColor=#82b366;" vertex="1" parent="7XObOdcH8YXmiFsAvzGK-72">
          <mxGeometry x="55" y="40" width="40" height="40" as="geometry" />
        </mxCell>
        <mxCell id="7XObOdcH8YXmiFsAvzGK-2" value="กรอกแบบฟอร์มการแจ้งการถูกละเมิด" style="rounded=0;whiteSpace=wrap;html=1;fillColor=#fff2cc;strokeColor=#d6b656;" vertex="1" parent="7XObOdcH8YXmiFsAvzGK-72">
          <mxGeometry x="35" y="120" width="80" height="40" as="geometry" />
        </mxCell>
        <mxCell id="BdaOj8svtUJIjV7XR6Y5-9" value="END" style="ellipse;whiteSpace=wrap;html=1;aspect=fixed;fillColor=#f8cecc;strokeColor=#b85450;" vertex="1" parent="7XObOdcH8YXmiFsAvzGK-72">
          <mxGeometry x="55" y="350" width="40" height="40" as="geometry" />
        </mxCell>
        <mxCell id="7XObOdcH8YXmiFsAvzGK-18" value="" style="edgeStyle=orthogonalEdgeStyle;rounded=0;orthogonalLoop=1;jettySize=auto;html=1;" edge="1" parent="7XObOdcH8YXmiFsAvzGK-72" source="7XObOdcH8YXmiFsAvzGK-1" target="7XObOdcH8YXmiFsAvzGK-2">
          <mxGeometry relative="1" as="geometry" />
        </mxCell>
        <mxCell id="7XObOdcH8YXmiFsAvzGK-22" value="" style="edgeStyle=orthogonalEdgeStyle;rounded=0;orthogonalLoop=1;jettySize=auto;html=1;exitX=0.5;exitY=1;exitDx=0;exitDy=0;fillColor=#fff2cc;gradientColor=#ffd966;strokeColor=#d6b656;" edge="1" parent="7XObOdcH8YXmiFsAvzGK-72" source="WsV3j_CdgapdO6vlQPJ0-3" target="BdaOj8svtUJIjV7XR6Y5-9">
          <mxGeometry relative="1" as="geometry">
            <mxPoint x="75" y="320" as="sourcePoint" />
          </mxGeometry>
        </mxCell>
        <mxCell id="7XObOdcH8YXmiFsAvzGK-63" value="" style="shape=message;html=1;html=1;outlineConnect=0;labelPosition=center;verticalLabelPosition=bottom;align=center;verticalAlign=top;fillColor=#ffcd28;gradientColor=#ffa500;strokeColor=#d79b00;" vertex="1" parent="7XObOdcH8YXmiFsAvzGK-72">
          <mxGeometry x="40" y="1030" width="50" height="30" as="geometry" />
        </mxCell>
        <mxCell id="WsV3j_CdgapdO6vlQPJ0-3" value="" style="shape=message;html=1;html=1;outlineConnect=0;labelPosition=center;verticalLabelPosition=bottom;align=center;verticalAlign=top;fillColor=#ffcd28;gradientColor=#ffa500;strokeColor=#d79b00;" vertex="1" parent="7XObOdcH8YXmiFsAvzGK-72">
          <mxGeometry x="50" y="290" width="50" height="30" as="geometry" />
        </mxCell>
        <mxCell id="7XObOdcH8YXmiFsAvzGK-73" value="DPO" style="swimlane;startSize=20;html=1;direction=east;fillColor=#008a00;strokeColor=#005700;fontColor=#ffffff;" vertex="1" parent="7XObOdcH8YXmiFsAvzGK-71">
          <mxGeometry x="150" y="20" width="240" height="1130" as="geometry" />
        </mxCell>
        <mxCell id="7XObOdcH8YXmiFsAvzGK-9" value="รับคำร้อง และพิจารณา" style="rounded=0;whiteSpace=wrap;html=1;fillColor=#fff2cc;strokeColor=#d6b656;" vertex="1" parent="7XObOdcH8YXmiFsAvzGK-73">
          <mxGeometry x="50" y="160" width="80" height="40" as="geometry" />
        </mxCell>
        <mxCell id="7XObOdcH8YXmiFsAvzGK-20" value="" style="edgeStyle=orthogonalEdgeStyle;rounded=0;orthogonalLoop=1;jettySize=auto;html=1;" edge="1" parent="7XObOdcH8YXmiFsAvzGK-73" source="7XObOdcH8YXmiFsAvzGK-9" target="BdaOj8svtUJIjV7XR6Y5-7">
          <mxGeometry relative="1" as="geometry" />
        </mxCell>
        <mxCell id="BdaOj8svtUJIjV7XR6Y5-7" value="พิจารณา" style="rhombus;whiteSpace=wrap;html=1;fillColor=#dae8fc;gradientColor=#7ea6e0;strokeColor=#6c8ebf;" vertex="1" parent="7XObOdcH8YXmiFsAvzGK-73">
          <mxGeometry x="50" y="230" width="80" height="40" as="geometry" />
        </mxCell>
        <mxCell id="7XObOdcH8YXmiFsAvzGK-14" value="ตรวจสอบข้อมูล และพิจารณาข้อมูลอ่อนไหว" style="rounded=0;whiteSpace=wrap;html=1;fillColor=#fff2cc;strokeColor=#d6b656;" vertex="1" parent="7XObOdcH8YXmiFsAvzGK-73">
          <mxGeometry x="80" y="490" width="80" height="40" as="geometry" />
        </mxCell>
        <mxCell id="BdaOj8svtUJIjV7XR6Y5-17" value="ข้อมูลอ่อนไหว" style="rhombus;whiteSpace=wrap;html=1;fillColor=#dae8fc;gradientColor=#7ea6e0;strokeColor=#6c8ebf;" vertex="1" parent="7XObOdcH8YXmiFsAvzGK-73">
          <mxGeometry x="80" y="555" width="80" height="40" as="geometry" />
        </mxCell>
        <mxCell id="7XObOdcH8YXmiFsAvzGK-32" style="edgeStyle=orthogonalEdgeStyle;rounded=0;orthogonalLoop=1;jettySize=auto;html=1;exitX=0.5;exitY=1;exitDx=0;exitDy=0;entryX=0.5;entryY=0;entryDx=0;entryDy=0;fillColor=#fff2cc;strokeColor=#d6b656;" edge="1" parent="7XObOdcH8YXmiFsAvzGK-73" source="7XObOdcH8YXmiFsAvzGK-14" target="BdaOj8svtUJIjV7XR6Y5-17">
          <mxGeometry relative="1" as="geometry" />
        </mxCell>
        <mxCell id="BdaOj8svtUJIjV7XR6Y5-19" value="แจ้ง สคส." style="rhombus;whiteSpace=wrap;html=1;fillColor=#dae8fc;gradientColor=#7ea6e0;strokeColor=#6c8ebf;" vertex="1" parent="7XObOdcH8YXmiFsAvzGK-73">
          <mxGeometry x="80" y="630" width="80" height="40" as="geometry" />
        </mxCell>
        <mxCell id="7XObOdcH8YXmiFsAvzGK-39" value="บันทึกเหตุผล" style="rounded=0;whiteSpace=wrap;html=1;fillColor=#fff2cc;strokeColor=#d6b656;" vertex="1" parent="7XObOdcH8YXmiFsAvzGK-73">
          <mxGeometry x="140" y="700" width="80" height="40" as="geometry" />
        </mxCell>
        <mxCell id="7XObOdcH8YXmiFsAvzGK-43" value="No" style="edgeStyle=orthogonalEdgeStyle;rounded=0;orthogonalLoop=1;jettySize=auto;html=1;exitX=1;exitY=0.5;exitDx=0;exitDy=0;entryX=0.5;entryY=0;entryDx=0;entryDy=0;fillColor=#f8cecc;gradientColor=#ea6b66;strokeColor=#b85450;" edge="1" parent="7XObOdcH8YXmiFsAvzGK-73" source="BdaOj8svtUJIjV7XR6Y5-19" target="7XObOdcH8YXmiFsAvzGK-39">
          <mxGeometry relative="1" as="geometry" />
        </mxCell>
        <mxCell id="7XObOdcH8YXmiFsAvzGK-45" value="ออกจม.แจ้งเหตุให้ สคส." style="label;whiteSpace=wrap;html=1;image=img/clipart/Gear_128x128.png;arcSize=0;fillColor=#f5f5f5;gradientColor=#b3b3b3;strokeColor=#666666;" vertex="1" parent="7XObOdcH8YXmiFsAvzGK-73">
          <mxGeometry x="10" y="750" width="120" height="50" as="geometry" />
        </mxCell>
        <mxCell id="7XObOdcH8YXmiFsAvzGK-53" value="Yes" style="edgeStyle=orthogonalEdgeStyle;rounded=0;orthogonalLoop=1;jettySize=auto;html=1;exitX=0;exitY=0.5;exitDx=0;exitDy=0;entryX=0.4;entryY=0.02;entryDx=0;entryDy=0;entryPerimeter=0;fillColor=#d5e8d4;gradientColor=#97d077;strokeColor=#82b366;" edge="1" parent="7XObOdcH8YXmiFsAvzGK-73" source="BdaOj8svtUJIjV7XR6Y5-19" target="7XObOdcH8YXmiFsAvzGK-45">
          <mxGeometry relative="1" as="geometry">
            <mxPoint x="-70" y="780" as="targetPoint" />
          </mxGeometry>
        </mxCell>
        <mxCell id="7XObOdcH8YXmiFsAvzGK-33" value="No" style="edgeStyle=orthogonalEdgeStyle;rounded=0;orthogonalLoop=1;jettySize=auto;html=1;entryX=0.5;entryY=0;entryDx=0;entryDy=0;exitX=0.5;exitY=1;exitDx=0;exitDy=0;fillColor=#f8cecc;gradientColor=#ea6b66;strokeColor=#b85450;" edge="1" parent="7XObOdcH8YXmiFsAvzGK-73" source="BdaOj8svtUJIjV7XR6Y5-17" target="BdaOj8svtUJIjV7XR6Y5-19">
          <mxGeometry relative="1" as="geometry">
            <mxPoint x="130" y="590" as="sourcePoint" />
          </mxGeometry>
        </mxCell>
        <mxCell id="7XObOdcH8YXmiFsAvzGK-54" value="อนุมัติ" style="rhombus;whiteSpace=wrap;html=1;fillColor=#dae8fc;gradientColor=#7ea6e0;strokeColor=#6c8ebf;" vertex="1" parent="7XObOdcH8YXmiFsAvzGK-73">
          <mxGeometry x="150" y="830" width="80" height="40" as="geometry" />
        </mxCell>
        <mxCell id="7XObOdcH8YXmiFsAvzGK-58" value="Yes" style="edgeStyle=orthogonalEdgeStyle;rounded=0;orthogonalLoop=1;jettySize=auto;html=1;exitX=0;exitY=0.5;exitDx=0;exitDy=0;entryX=0.75;entryY=1;entryDx=0;entryDy=0;fillColor=#d5e8d4;gradientColor=#97d077;strokeColor=#82b366;" edge="1" parent="7XObOdcH8YXmiFsAvzGK-73" source="7XObOdcH8YXmiFsAvzGK-54" target="7XObOdcH8YXmiFsAvzGK-45">
          <mxGeometry relative="1" as="geometry" />
        </mxCell>
        <mxCell id="7XObOdcH8YXmiFsAvzGK-64" value="" style="shape=message;html=1;html=1;outlineConnect=0;labelPosition=center;verticalLabelPosition=bottom;align=center;verticalAlign=top;fillColor=#ffcd28;gradientColor=#ffa500;strokeColor=#d79b00;" vertex="1" parent="7XObOdcH8YXmiFsAvzGK-73">
          <mxGeometry x="80" y="1030" width="50" height="30" as="geometry" />
        </mxCell>
        <mxCell id="7XObOdcH8YXmiFsAvzGK-21" value="Reject" style="edgeStyle=orthogonalEdgeStyle;rounded=0;orthogonalLoop=1;jettySize=auto;html=1;exitX=0;exitY=0.5;exitDx=0;exitDy=0;entryX=0.5;entryY=0;entryDx=0;entryDy=0;fillColor=#f8cecc;strokeColor=#b85450;gradientColor=#ea6b66;" edge="1" parent="7XObOdcH8YXmiFsAvzGK-71" source="BdaOj8svtUJIjV7XR6Y5-7" target="WsV3j_CdgapdO6vlQPJ0-3">
          <mxGeometry relative="1" as="geometry">
            <mxPoint x="40" y="250" as="targetPoint" />
            <Array as="points">
              <mxPoint x="75" y="270" />
            </Array>
          </mxGeometry>
        </mxCell>
        <mxCell id="7XObOdcH8YXmiFsAvzGK-23" style="edgeStyle=orthogonalEdgeStyle;rounded=0;orthogonalLoop=1;jettySize=auto;html=1;exitX=1;exitY=0.5;exitDx=0;exitDy=0;entryX=1;entryY=0.5;entryDx=0;entryDy=0;fillColor=#d5e8d4;strokeColor=#82b366;gradientColor=#97d077;" edge="1" parent="7XObOdcH8YXmiFsAvzGK-71" source="BdaOj8svtUJIjV7XR6Y5-7" target="7XObOdcH8YXmiFsAvzGK-11">
          <mxGeometry relative="1" as="geometry" />
        </mxCell>
        <mxCell id="7XObOdcH8YXmiFsAvzGK-48" value="Approve" style="edgeLabel;html=1;align=center;verticalAlign=middle;resizable=0;points=[];" vertex="1" connectable="0" parent="7XObOdcH8YXmiFsAvzGK-23">
          <mxGeometry x="-0.2196" y="-1" relative="1" as="geometry">
            <mxPoint as="offset" />
          </mxGeometry>
        </mxCell>
        <mxCell id="7XObOdcH8YXmiFsAvzGK-24" style="edgeStyle=orthogonalEdgeStyle;rounded=0;orthogonalLoop=1;jettySize=auto;html=1;exitX=0;exitY=0.5;exitDx=0;exitDy=0;entryX=0.5;entryY=0;entryDx=0;entryDy=0;fillColor=#fff2cc;strokeColor=#d6b656;" edge="1" parent="7XObOdcH8YXmiFsAvzGK-71" source="7XObOdcH8YXmiFsAvzGK-11" target="7XObOdcH8YXmiFsAvzGK-12">
          <mxGeometry relative="1" as="geometry" />
        </mxCell>
        <mxCell id="7XObOdcH8YXmiFsAvzGK-27" style="edgeStyle=orthogonalEdgeStyle;rounded=0;orthogonalLoop=1;jettySize=auto;html=1;exitX=0;exitY=0.5;exitDx=0;exitDy=0;entryX=0.5;entryY=0;entryDx=0;entryDy=0;fillColor=#f8cecc;strokeColor=#b85450;gradientColor=#ea6b66;" edge="1" parent="7XObOdcH8YXmiFsAvzGK-71" source="BdaOj8svtUJIjV7XR6Y5-12" target="7XObOdcH8YXmiFsAvzGK-11">
          <mxGeometry relative="1" as="geometry" />
        </mxCell>
        <mxCell id="7XObOdcH8YXmiFsAvzGK-49" value="No" style="edgeLabel;html=1;align=center;verticalAlign=middle;resizable=0;points=[];" vertex="1" connectable="0" parent="7XObOdcH8YXmiFsAvzGK-27">
          <mxGeometry x="-0.5064" y="-1" relative="1" as="geometry">
            <mxPoint as="offset" />
          </mxGeometry>
        </mxCell>
        <mxCell id="7XObOdcH8YXmiFsAvzGK-30" style="edgeStyle=orthogonalEdgeStyle;rounded=0;orthogonalLoop=1;jettySize=auto;html=1;exitX=0;exitY=0.5;exitDx=0;exitDy=0;entryX=1;entryY=0.5;entryDx=0;entryDy=0;fillColor=#fff2cc;strokeColor=#d6b656;" edge="1" parent="7XObOdcH8YXmiFsAvzGK-71" source="7XObOdcH8YXmiFsAvzGK-15" target="7XObOdcH8YXmiFsAvzGK-13">
          <mxGeometry relative="1" as="geometry" />
        </mxCell>
        <mxCell id="7XObOdcH8YXmiFsAvzGK-35" style="edgeStyle=orthogonalEdgeStyle;rounded=0;orthogonalLoop=1;jettySize=auto;html=1;exitX=1;exitY=0.5;exitDx=0;exitDy=0;entryX=0.5;entryY=1;entryDx=0;entryDy=0;fillColor=#f8cecc;gradientColor=#ea6b66;strokeColor=#b85450;" edge="1" parent="7XObOdcH8YXmiFsAvzGK-71" source="BdaOj8svtUJIjV7XR6Y5-14" target="7XObOdcH8YXmiFsAvzGK-15">
          <mxGeometry relative="1" as="geometry" />
        </mxCell>
        <mxCell id="7XObOdcH8YXmiFsAvzGK-50" value="No" style="edgeLabel;html=1;align=center;verticalAlign=middle;resizable=0;points=[];" vertex="1" connectable="0" parent="7XObOdcH8YXmiFsAvzGK-35">
          <mxGeometry x="-0.0061" y="2" relative="1" as="geometry">
            <mxPoint as="offset" />
          </mxGeometry>
        </mxCell>
        <mxCell id="7XObOdcH8YXmiFsAvzGK-31" value="Yes" style="edgeStyle=orthogonalEdgeStyle;rounded=0;orthogonalLoop=1;jettySize=auto;html=1;exitX=0;exitY=0.5;exitDx=0;exitDy=0;entryX=1;entryY=0.5;entryDx=0;entryDy=0;fillColor=#d5e8d4;gradientColor=#97d077;strokeColor=#82b366;" edge="1" parent="7XObOdcH8YXmiFsAvzGK-71" source="BdaOj8svtUJIjV7XR6Y5-14" target="7XObOdcH8YXmiFsAvzGK-14">
          <mxGeometry relative="1" as="geometry" />
        </mxCell>
        <mxCell id="7XObOdcH8YXmiFsAvzGK-19" style="edgeStyle=orthogonalEdgeStyle;rounded=0;orthogonalLoop=1;jettySize=auto;html=1;exitX=1;exitY=0.5;exitDx=0;exitDy=0;entryX=0.5;entryY=0;entryDx=0;entryDy=0;fillColor=#fff2cc;strokeColor=#d6b656;" edge="1" parent="7XObOdcH8YXmiFsAvzGK-71" source="7XObOdcH8YXmiFsAvzGK-2" target="7XObOdcH8YXmiFsAvzGK-9">
          <mxGeometry relative="1" as="geometry" />
        </mxCell>
        <mxCell id="7XObOdcH8YXmiFsAvzGK-75" value="Data Controller" style="swimlane;startSize=20;html=1;fillColor=#6a00ff;fontColor=#ffffff;strokeColor=#3700CC;" vertex="1" parent="7XObOdcH8YXmiFsAvzGK-71">
          <mxGeometry x="390" y="20" width="230" height="1130" as="geometry" />
        </mxCell>
        <mxCell id="7XObOdcH8YXmiFsAvzGK-11" value="กำหนดหน่วยงานผู้รับผิดชอบ" style="rounded=0;whiteSpace=wrap;html=1;direction=west;fillColor=#fff2cc;strokeColor=#d6b656;" vertex="1" parent="7XObOdcH8YXmiFsAvzGK-75">
          <mxGeometry x="75" y="230" width="80" height="40" as="geometry" />
        </mxCell>
        <mxCell id="7XObOdcH8YXmiFsAvzGK-13" value="พิจารณาบันทึก" style="rounded=0;whiteSpace=wrap;html=1;fillColor=#fff2cc;strokeColor=#d6b656;" vertex="1" parent="7XObOdcH8YXmiFsAvzGK-75">
          <mxGeometry x="75" y="410" width="80" height="40" as="geometry" />
        </mxCell>
        <mxCell id="BdaOj8svtUJIjV7XR6Y5-14" value="อนุมัติ" style="rhombus;whiteSpace=wrap;html=1;fillColor=#dae8fc;gradientColor=#7ea6e0;strokeColor=#6c8ebf;" vertex="1" parent="7XObOdcH8YXmiFsAvzGK-75">
          <mxGeometry x="75" y="490" width="80" height="40" as="geometry" />
        </mxCell>
        <mxCell id="7XObOdcH8YXmiFsAvzGK-34" style="edgeStyle=orthogonalEdgeStyle;rounded=0;orthogonalLoop=1;jettySize=auto;html=1;exitX=0.5;exitY=1;exitDx=0;exitDy=0;entryX=0.5;entryY=0;entryDx=0;entryDy=0;fillColor=#fff2cc;strokeColor=#d6b656;" edge="1" parent="7XObOdcH8YXmiFsAvzGK-75" source="7XObOdcH8YXmiFsAvzGK-13" target="BdaOj8svtUJIjV7XR6Y5-14">
          <mxGeometry relative="1" as="geometry" />
        </mxCell>
        <mxCell id="7XObOdcH8YXmiFsAvzGK-37" value="แจ้งผลกระทบให้เจ้าของข้อมูล" style="rounded=0;whiteSpace=wrap;html=1;fillColor=#fff2cc;strokeColor=#d6b656;" vertex="1" parent="7XObOdcH8YXmiFsAvzGK-75">
          <mxGeometry x="70" y="760" width="80" height="40" as="geometry" />
        </mxCell>
        <mxCell id="7XObOdcH8YXmiFsAvzGK-41" value="ปิดงาน" style="rounded=0;whiteSpace=wrap;html=1;fillColor=#fff2cc;strokeColor=#d6b656;" vertex="1" parent="7XObOdcH8YXmiFsAvzGK-75">
          <mxGeometry x="120" y="920" width="80" height="40" as="geometry" />
        </mxCell>
        <mxCell id="7XObOdcH8YXmiFsAvzGK-61" value="ยับยั้ง" style="rhombus;whiteSpace=wrap;html=1;fillColor=#dae8fc;gradientColor=#7ea6e0;strokeColor=#6c8ebf;" vertex="1" parent="7XObOdcH8YXmiFsAvzGK-75">
          <mxGeometry x="120" y="990" width="80" height="40" as="geometry" />
        </mxCell>
        <mxCell id="7XObOdcH8YXmiFsAvzGK-62" style="edgeStyle=orthogonalEdgeStyle;rounded=0;orthogonalLoop=1;jettySize=auto;html=1;exitX=0.5;exitY=1;exitDx=0;exitDy=0;entryX=0.5;entryY=0;entryDx=0;entryDy=0;fillColor=#fff2cc;strokeColor=#d6b656;" edge="1" parent="7XObOdcH8YXmiFsAvzGK-75" source="7XObOdcH8YXmiFsAvzGK-41" target="7XObOdcH8YXmiFsAvzGK-61">
          <mxGeometry relative="1" as="geometry" />
        </mxCell>
        <mxCell id="7XObOdcH8YXmiFsAvzGK-38" value="Yes" style="edgeStyle=orthogonalEdgeStyle;rounded=0;orthogonalLoop=1;jettySize=auto;html=1;exitX=1;exitY=0.5;exitDx=0;exitDy=0;entryX=0.5;entryY=0;entryDx=0;entryDy=0;fillColor=#d5e8d4;gradientColor=#97d077;strokeColor=#82b366;" edge="1" parent="7XObOdcH8YXmiFsAvzGK-71" source="BdaOj8svtUJIjV7XR6Y5-17" target="7XObOdcH8YXmiFsAvzGK-37">
          <mxGeometry relative="1" as="geometry" />
        </mxCell>
        <mxCell id="7XObOdcH8YXmiFsAvzGK-57" style="edgeStyle=orthogonalEdgeStyle;rounded=0;orthogonalLoop=1;jettySize=auto;html=1;exitX=0.5;exitY=1;exitDx=0;exitDy=0;entryX=1;entryY=0.5;entryDx=0;entryDy=0;fillColor=#fff2cc;strokeColor=#d6b656;" edge="1" parent="7XObOdcH8YXmiFsAvzGK-71" source="7XObOdcH8YXmiFsAvzGK-37" target="7XObOdcH8YXmiFsAvzGK-54">
          <mxGeometry relative="1" as="geometry" />
        </mxCell>
        <mxCell id="7XObOdcH8YXmiFsAvzGK-59" style="edgeStyle=orthogonalEdgeStyle;rounded=0;orthogonalLoop=1;jettySize=auto;html=1;exitX=0.5;exitY=0;exitDx=0;exitDy=0;entryX=0;entryY=0.5;entryDx=0;entryDy=0;fillColor=#f8cecc;gradientColor=#ea6b66;strokeColor=#b85450;" edge="1" parent="7XObOdcH8YXmiFsAvzGK-71" source="7XObOdcH8YXmiFsAvzGK-54" target="7XObOdcH8YXmiFsAvzGK-37">
          <mxGeometry relative="1" as="geometry" />
        </mxCell>
        <mxCell id="WsV3j_CdgapdO6vlQPJ0-1" value="No" style="edgeLabel;html=1;align=center;verticalAlign=middle;resizable=0;points=[];" vertex="1" connectable="0" parent="7XObOdcH8YXmiFsAvzGK-59">
          <mxGeometry x="-0.2471" y="-4" relative="1" as="geometry">
            <mxPoint as="offset" />
          </mxGeometry>
        </mxCell>
        <mxCell id="7XObOdcH8YXmiFsAvzGK-74" value="Data Processing" style="swimlane;startSize=20;html=1;fillColor=#d80073;fontColor=#ffffff;strokeColor=#A50040;" vertex="1" parent="7XObOdcH8YXmiFsAvzGK-71">
          <mxGeometry x="620" y="20" width="190" height="1130" as="geometry" />
        </mxCell>
        <mxCell id="7XObOdcH8YXmiFsAvzGK-15" value="บันทึกเหตุการณ์" style="rounded=0;whiteSpace=wrap;html=1;fillColor=#fff2cc;strokeColor=#d6b656;" vertex="1" parent="7XObOdcH8YXmiFsAvzGK-74">
          <mxGeometry x="55" y="410" width="80" height="40" as="geometry" />
        </mxCell>
        <mxCell id="7XObOdcH8YXmiFsAvzGK-12" value="รับคำร้อง" style="rounded=0;whiteSpace=wrap;html=1;fillColor=#fff2cc;strokeColor=#d6b656;" vertex="1" parent="7XObOdcH8YXmiFsAvzGK-74">
          <mxGeometry x="55" y="270" width="80" height="40" as="geometry" />
        </mxCell>
        <mxCell id="BdaOj8svtUJIjV7XR6Y5-12" value="เป็นหน่วยงานที่รับผิดชอบ" style="rhombus;whiteSpace=wrap;html=1;fillColor=#dae8fc;gradientColor=#7ea6e0;strokeColor=#6c8ebf;" vertex="1" parent="7XObOdcH8YXmiFsAvzGK-74">
          <mxGeometry x="55" y="330" width="80" height="40" as="geometry" />
        </mxCell>
        <mxCell id="7XObOdcH8YXmiFsAvzGK-25" value="" style="edgeStyle=orthogonalEdgeStyle;rounded=0;orthogonalLoop=1;jettySize=auto;html=1;" edge="1" parent="7XObOdcH8YXmiFsAvzGK-74" source="7XObOdcH8YXmiFsAvzGK-12" target="BdaOj8svtUJIjV7XR6Y5-12">
          <mxGeometry relative="1" as="geometry" />
        </mxCell>
        <mxCell id="7XObOdcH8YXmiFsAvzGK-29" value="Yes" style="edgeStyle=orthogonalEdgeStyle;rounded=0;orthogonalLoop=1;jettySize=auto;html=1;exitX=0.5;exitY=1;exitDx=0;exitDy=0;entryX=0.5;entryY=0;entryDx=0;entryDy=0;fillColor=#d5e8d4;strokeColor=#82b366;gradientColor=#97d077;" edge="1" parent="7XObOdcH8YXmiFsAvzGK-74" source="BdaOj8svtUJIjV7XR6Y5-12" target="7XObOdcH8YXmiFsAvzGK-15">
          <mxGeometry relative="1" as="geometry" />
        </mxCell>
        <mxCell id="7XObOdcH8YXmiFsAvzGK-65" value="ตรวจสอบข้อมูล" style="rounded=0;whiteSpace=wrap;html=1;fillColor=#fff2cc;strokeColor=#d6b656;" vertex="1" parent="7XObOdcH8YXmiFsAvzGK-74">
          <mxGeometry x="60" y="990" width="80" height="40" as="geometry" />
        </mxCell>
        <mxCell id="7XObOdcH8YXmiFsAvzGK-44" style="edgeStyle=orthogonalEdgeStyle;rounded=0;orthogonalLoop=1;jettySize=auto;html=1;exitX=1;exitY=0.5;exitDx=0;exitDy=0;entryX=0.5;entryY=0;entryDx=0;entryDy=0;fillColor=#fff2cc;strokeColor=#d6b656;" edge="1" parent="7XObOdcH8YXmiFsAvzGK-71" source="7XObOdcH8YXmiFsAvzGK-39" target="7XObOdcH8YXmiFsAvzGK-41">
          <mxGeometry relative="1" as="geometry" />
        </mxCell>
        <mxCell id="7XObOdcH8YXmiFsAvzGK-60" style="edgeStyle=orthogonalEdgeStyle;rounded=0;orthogonalLoop=1;jettySize=auto;html=1;exitX=0.5;exitY=1;exitDx=0;exitDy=0;entryX=0;entryY=0.5;entryDx=0;entryDy=0;fillColor=#fff2cc;strokeColor=#d6b656;" edge="1" parent="7XObOdcH8YXmiFsAvzGK-71" source="7XObOdcH8YXmiFsAvzGK-45" target="7XObOdcH8YXmiFsAvzGK-41">
          <mxGeometry relative="1" as="geometry" />
        </mxCell>
        <mxCell id="7XObOdcH8YXmiFsAvzGK-66" style="edgeStyle=orthogonalEdgeStyle;rounded=0;orthogonalLoop=1;jettySize=auto;html=1;exitX=0.5;exitY=0;exitDx=0;exitDy=0;entryX=1;entryY=0.5;entryDx=0;entryDy=0;fillColor=#fff2cc;strokeColor=#d6b656;" edge="1" parent="7XObOdcH8YXmiFsAvzGK-71" source="7XObOdcH8YXmiFsAvzGK-65" target="7XObOdcH8YXmiFsAvzGK-41">
          <mxGeometry relative="1" as="geometry" />
        </mxCell>
        <mxCell id="7XObOdcH8YXmiFsAvzGK-67" value="Yes" style="edgeStyle=orthogonalEdgeStyle;rounded=0;orthogonalLoop=1;jettySize=auto;html=1;exitX=1;exitY=0.5;exitDx=0;exitDy=0;entryX=0;entryY=0.5;entryDx=0;entryDy=0;fillColor=#d5e8d4;gradientColor=#97d077;strokeColor=#82b366;" edge="1" parent="7XObOdcH8YXmiFsAvzGK-71" source="7XObOdcH8YXmiFsAvzGK-61" target="7XObOdcH8YXmiFsAvzGK-65">
          <mxGeometry relative="1" as="geometry" />
        </mxCell>
        <mxCell id="7XObOdcH8YXmiFsAvzGK-68" style="edgeStyle=orthogonalEdgeStyle;rounded=0;orthogonalLoop=1;jettySize=auto;html=1;exitX=0;exitY=0.5;exitDx=0;exitDy=0;entryX=0.5;entryY=0;entryDx=0;entryDy=0;fillColor=#f8cecc;gradientColor=#ea6b66;strokeColor=#b85450;" edge="1" parent="7XObOdcH8YXmiFsAvzGK-71" source="7XObOdcH8YXmiFsAvzGK-61" target="7XObOdcH8YXmiFsAvzGK-64">
          <mxGeometry relative="1" as="geometry" />
        </mxCell>
        <mxCell id="7XObOdcH8YXmiFsAvzGK-69" style="edgeStyle=orthogonalEdgeStyle;rounded=0;orthogonalLoop=1;jettySize=auto;html=1;exitX=0;exitY=0.5;exitDx=0;exitDy=0;entryX=0.5;entryY=0;entryDx=0;entryDy=0;fillColor=#f8cecc;gradientColor=#ea6b66;strokeColor=#b85450;" edge="1" parent="7XObOdcH8YXmiFsAvzGK-71" source="7XObOdcH8YXmiFsAvzGK-61" target="7XObOdcH8YXmiFsAvzGK-63">
          <mxGeometry relative="1" as="geometry" />
        </mxCell>
        <mxCell id="WsV3j_CdgapdO6vlQPJ0-2" value="No" style="edgeLabel;html=1;align=center;verticalAlign=middle;resizable=0;points=[];" vertex="1" connectable="0" parent="7XObOdcH8YXmiFsAvzGK-69">
          <mxGeometry x="-0.7584" y="-2" relative="1" as="geometry">
            <mxPoint as="offset" />
          </mxGeometry>
        </mxCell>
      </root>
    </mxGraphModel>
  </diagram>
</mxfile>
